<svg id="visual" viewBox="0 0 1920 1080" width="1920" height="1080" xmlns="http://www.w3.org/2000/svg" xmlns:xlink="http://www.w3.org/1999/xlink" version="1.1"><rect x="0" y="0" width="1920" height="1080" fill="#140021"></rect><path d="M0 301L83 301L83 295L167 295L167 909L250 909L250 880L334 880L334 565L417 565L417 924L501 924L501 973L584 973L584 565L668 565L668 265L751 265L751 409L835 409L835 694L918 694L918 702L1002 702L1002 935L1085 935L1085 513L1169 513L1169 640L1252 640L1252 386L1336 386L1336 589L1419 589L1419 543L1503 543L1503 677L1586 677L1586 542L1670 542L1670 858L1753 858L1753 796L1837 796L1837 604L1920 604L1920 997L1920 1081L1920 1081L1837 1081L1837 1081L1753 1081L1753 1081L1670 1081L1670 1081L1586 1081L1586 1081L1503 1081L1503 1081L1419 1081L1419 1081L1336 1081L1336 1081L1252 1081L1252 1081L1169 1081L1169 1081L1085 1081L1085 1081L1002 1081L1002 1081L918 1081L918 1081L835 1081L835 1081L751 1081L751 1081L668 1081L668 1081L584 1081L584 1081L501 1081L501 1081L417 1081L417 1081L334 1081L334 1081L250 1081L250 1081L167 1081L167 1081L83 1081L83 1081L0 1081Z" fill="#9900ff"></path><path d="M0 583L83 583L83 856L167 856L167 630L250 630L250 583L334 583L334 948L417 948L417 466L501 466L501 741L584 741L584 542L668 542L668 620L751 620L751 404L835 404L835 332L918 332L918 914L1002 914L1002 830L1085 830L1085 677L1169 677L1169 539L1252 539L1252 772L1336 772L1336 843L1419 843L1419 450L1503 450L1503 610L1586 610L1586 823L1670 823L1670 852L1753 852L1753 498L1837 498L1837 925L1920 925L1920 687L1920 1081L1920 1081L1837 1081L1837 1081L1753 1081L1753 1081L1670 1081L1670 1081L1586 1081L1586 1081L1503 1081L1503 1081L1419 1081L1419 1081L1336 1081L1336 1081L1252 1081L1252 1081L1169 1081L1169 1081L1085 1081L1085 1081L1002 1081L1002 1081L918 1081L918 1081L835 1081L835 1081L751 1081L751 1081L668 1081L668 1081L584 1081L584 1081L501 1081L501 1081L417 1081L417 1081L334 1081L334 1081L250 1081L250 1081L167 1081L167 1081L83 1081L83 1081L0 1081Z" fill="#9300f4"></path><path d="M0 400L83 400L83 960L167 960L167 465L250 465L250 965L334 965L334 779L417 779L417 369L501 369L501 726L584 726L584 975L668 975L668 643L751 643L751 762L835 762L835 511L918 511L918 685L1002 685L1002 1005L1085 1005L1085 824L1169 824L1169 603L1252 603L1252 576L1336 576L1336 821L1419 821L1419 961L1503 961L1503 577L1586 577L1586 874L1670 874L1670 830L1753 830L1753 989L1837 989L1837 1018L1920 1018L1920 432L1920 1081L1920 1081L1837 1081L1837 1081L1753 1081L1753 1081L1670 1081L1670 1081L1586 1081L1586 1081L1503 1081L1503 1081L1419 1081L1419 1081L1336 1081L1336 1081L1252 1081L1252 1081L1169 1081L1169 1081L1085 1081L1085 1081L1002 1081L1002 1081L918 1081L918 1081L835 1081L835 1081L751 1081L751 1081L668 1081L668 1081L584 1081L584 1081L501 1081L501 1081L417 1081L417 1081L334 1081L334 1081L250 1081L250 1081L167 1081L167 1081L83 1081L83 1081L0 1081Z" fill="#8d00ea"></path><path d="M0 810L83 810L83 870L167 870L167 479L250 479L250 881L334 881L334 436L417 436L417 807L501 807L501 663L584 663L584 916L668 916L668 650L751 650L751 575L835 575L835 1004L918 1004L918 580L1002 580L1002 707L1085 707L1085 452L1169 452L1169 943L1252 943L1252 461L1336 461L1336 868L1419 868L1419 968L1503 968L1503 748L1586 748L1586 994L1670 994L1670 599L1753 599L1753 444L1837 444L1837 418L1920 418L1920 451L1920 1081L1920 1081L1837 1081L1837 1081L1753 1081L1753 1081L1670 1081L1670 1081L1586 1081L1586 1081L1503 1081L1503 1081L1419 1081L1419 1081L1336 1081L1336 1081L1252 1081L1252 1081L1169 1081L1169 1081L1085 1081L1085 1081L1002 1081L1002 1081L918 1081L918 1081L835 1081L835 1081L751 1081L751 1081L668 1081L668 1081L584 1081L584 1081L501 1081L501 1081L417 1081L417 1081L334 1081L334 1081L250 1081L250 1081L167 1081L167 1081L83 1081L83 1081L0 1081Z" fill="#8600e0"></path><path d="M0 988L83 988L83 693L167 693L167 741L250 741L250 689L334 689L334 593L417 593L417 679L501 679L501 914L584 914L584 556L668 556L668 704L751 704L751 498L835 498L835 737L918 737L918 847L1002 847L1002 999L1085 999L1085 740L1169 740L1169 795L1252 795L1252 622L1336 622L1336 696L1419 696L1419 960L1503 960L1503 561L1586 561L1586 688L1670 688L1670 990L1753 990L1753 739L1837 739L1837 626L1920 626L1920 648L1920 1081L1920 1081L1837 1081L1837 1081L1753 1081L1753 1081L1670 1081L1670 1081L1586 1081L1586 1081L1503 1081L1503 1081L1419 1081L1419 1081L1336 1081L1336 1081L1252 1081L1252 1081L1169 1081L1169 1081L1085 1081L1085 1081L1002 1081L1002 1081L918 1081L918 1081L835 1081L835 1081L751 1081L751 1081L668 1081L668 1081L584 1081L584 1081L501 1081L501 1081L417 1081L417 1081L334 1081L334 1081L250 1081L250 1081L167 1081L167 1081L83 1081L83 1081L0 1081Z" fill="#8000d5"></path><path d="M0 750L83 750L83 619L167 619L167 742L250 742L250 649L334 649L334 952L417 952L417 649L501 649L501 987L584 987L584 948L668 948L668 824L751 824L751 577L835 577L835 739L918 739L918 921L1002 921L1002 773L1085 773L1085 756L1169 756L1169 581L1252 581L1252 642L1336 642L1336 1015L1419 1015L1419 773L1503 773L1503 1003L1586 1003L1586 874L1670 874L1670 1039L1753 1039L1753 920L1837 920L1837 698L1920 698L1920 800L1920 1081L1920 1081L1837 1081L1837 1081L1753 1081L1753 1081L1670 1081L1670 1081L1586 1081L1586 1081L1503 1081L1503 1081L1419 1081L1419 1081L1336 1081L1336 1081L1252 1081L1252 1081L1169 1081L1169 1081L1085 1081L1085 1081L1002 1081L1002 1081L918 1081L918 1081L835 1081L835 1081L751 1081L751 1081L668 1081L668 1081L584 1081L584 1081L501 1081L501 1081L417 1081L417 1081L334 1081L334 1081L250 1081L250 1081L167 1081L167 1081L83 1081L83 1081L0 1081Z" fill="#7a00cb"></path><path d="M0 923L83 923L83 892L167 892L167 1023L250 1023L250 756L334 756L334 964L417 964L417 936L501 936L501 962L584 962L584 684L668 684L668 890L751 890L751 934L835 934L835 727L918 727L918 639L1002 639L1002 761L1085 761L1085 929L1169 929L1169 994L1252 994L1252 688L1336 688L1336 929L1419 929L1419 894L1503 894L1503 968L1586 968L1586 750L1670 750L1670 718L1753 718L1753 1041L1837 1041L1837 797L1920 797L1920 825L1920 1081L1920 1081L1837 1081L1837 1081L1753 1081L1753 1081L1670 1081L1670 1081L1586 1081L1586 1081L1503 1081L1503 1081L1419 1081L1419 1081L1336 1081L1336 1081L1252 1081L1252 1081L1169 1081L1169 1081L1085 1081L1085 1081L1002 1081L1002 1081L918 1081L918 1081L835 1081L835 1081L751 1081L751 1081L668 1081L668 1081L584 1081L584 1081L501 1081L501 1081L417 1081L417 1081L334 1081L334 1081L250 1081L250 1081L167 1081L167 1081L83 1081L83 1081L0 1081Z" fill="#7400c1"></path><path d="M0 991L83 991L83 928L167 928L167 1027L250 1027L250 713L334 713L334 945L417 945L417 966L501 966L501 1047L584 1047L584 990L668 990L668 949L751 949L751 922L835 922L835 689L918 689L918 716L1002 716L1002 969L1085 969L1085 1025L1169 1025L1169 910L1252 910L1252 1045L1336 1045L1336 978L1419 978L1419 756L1503 756L1503 718L1586 718L1586 745L1670 745L1670 894L1753 894L1753 808L1837 808L1837 846L1920 846L1920 934L1920 1081L1920 1081L1837 1081L1837 1081L1753 1081L1753 1081L1670 1081L1670 1081L1586 1081L1586 1081L1503 1081L1503 1081L1419 1081L1419 1081L1336 1081L1336 1081L1252 1081L1252 1081L1169 1081L1169 1081L1085 1081L1085 1081L1002 1081L1002 1081L918 1081L918 1081L835 1081L835 1081L751 1081L751 1081L668 1081L668 1081L584 1081L584 1081L501 1081L501 1081L417 1081L417 1081L334 1081L334 1081L250 1081L250 1081L167 1081L167 1081L83 1081L83 1081L0 1081Z" fill="#6e00b7"></path><path d="M0 1029L83 1029L83 748L167 748L167 1051L250 1051L250 802L334 802L334 977L417 977L417 884L501 884L501 1034L584 1034L584 966L668 966L668 760L751 760L751 833L835 833L835 803L918 803L918 871L1002 871L1002 763L1085 763L1085 839L1169 839L1169 822L1252 822L1252 904L1336 904L1336 953L1419 953L1419 916L1503 916L1503 787L1586 787L1586 1021L1670 1021L1670 896L1753 896L1753 1048L1837 1048L1837 976L1920 976L1920 836L1920 1081L1920 1081L1837 1081L1837 1081L1753 1081L1753 1081L1670 1081L1670 1081L1586 1081L1586 1081L1503 1081L1503 1081L1419 1081L1419 1081L1336 1081L1336 1081L1252 1081L1252 1081L1169 1081L1169 1081L1085 1081L1085 1081L1002 1081L1002 1081L918 1081L918 1081L835 1081L835 1081L751 1081L751 1081L668 1081L668 1081L584 1081L584 1081L501 1081L501 1081L417 1081L417 1081L334 1081L334 1081L250 1081L250 1081L167 1081L167 1081L83 1081L83 1081L0 1081Z" fill="#6800ad"></path><path d="M0 850L83 850L83 848L167 848L167 836L250 836L250 954L334 954L334 1052L417 1052L417 837L501 837L501 955L584 955L584 935L668 935L668 949L751 949L751 840L835 840L835 845L918 845L918 916L1002 916L1002 1010L1085 1010L1085 976L1169 976L1169 1049L1252 1049L1252 1019L1336 1019L1336 858L1419 858L1419 835L1503 835L1503 863L1586 863L1586 891L1670 891L1670 948L1753 948L1753 1062L1837 1062L1837 1044L1920 1044L1920 1000L1920 1081L1920 1081L1837 1081L1837 1081L1753 1081L1753 1081L1670 1081L1670 1081L1586 1081L1586 1081L1503 1081L1503 1081L1419 1081L1419 1081L1336 1081L1336 1081L1252 1081L1252 1081L1169 1081L1169 1081L1085 1081L1085 1081L1002 1081L1002 1081L918 1081L918 1081L835 1081L835 1081L751 1081L751 1081L668 1081L668 1081L584 1081L584 1081L501 1081L501 1081L417 1081L417 1081L334 1081L334 1081L250 1081L250 1081L167 1081L167 1081L83 1081L83 1081L0 1081Z" fill="#6200a3"></path><path d="M0 1067L83 1067L83 942L167 942L167 950L250 950L250 945L334 945L334 1022L417 1022L417 887L501 887L501 918L584 918L584 1036L668 1036L668 1022L751 1022L751 962L835 962L835 1058L918 1058L918 1013L1002 1013L1002 1009L1085 1009L1085 962L1169 962L1169 937L1252 937L1252 937L1336 937L1336 922L1419 922L1419 884L1503 884L1503 920L1586 920L1586 1026L1670 1026L1670 1010L1753 1010L1753 912L1837 912L1837 978L1920 978L1920 930L1920 1081L1920 1081L1837 1081L1837 1081L1753 1081L1753 1081L1670 1081L1670 1081L1586 1081L1586 1081L1503 1081L1503 1081L1419 1081L1419 1081L1336 1081L1336 1081L1252 1081L1252 1081L1169 1081L1169 1081L1085 1081L1085 1081L1002 1081L1002 1081L918 1081L918 1081L835 1081L835 1081L751 1081L751 1081L668 1081L668 1081L584 1081L584 1081L501 1081L501 1081L417 1081L417 1081L334 1081L334 1081L250 1081L250 1081L167 1081L167 1081L83 1081L83 1081L0 1081Z" fill="#5c009a"></path><path d="M0 985L83 985L83 1070L167 1070L167 960L250 960L250 1036L334 1036L334 979L417 979L417 975L501 975L501 1070L584 1070L584 969L668 969L668 1060L751 1060L751 957L835 957L835 991L918 991L918 1023L1002 1023L1002 1067L1085 1067L1085 1057L1169 1057L1169 949L1252 949L1252 1067L1336 1067L1336 950L1419 950L1419 1001L1503 1001L1503 987L1586 987L1586 972L1670 972L1670 1044L1753 1044L1753 1029L1837 1029L1837 1073L1920 1073L1920 1065L1920 1081L1920 1081L1837 1081L1837 1081L1753 1081L1753 1081L1670 1081L1670 1081L1586 1081L1586 1081L1503 1081L1503 1081L1419 1081L1419 1081L1336 1081L1336 1081L1252 1081L1252 1081L1169 1081L1169 1081L1085 1081L1085 1081L1002 1081L1002 1081L918 1081L918 1081L835 1081L835 1081L751 1081L751 1081L668 1081L668 1081L584 1081L584 1081L501 1081L501 1081L417 1081L417 1081L334 1081L334 1081L250 1081L250 1081L167 1081L167 1081L83 1081L83 1081L0 1081Z" fill="#560090"></path></svg>